<svg width="30" height="30" viewBox="0 0 30 30" fill="none" xmlns="http://www.w3.org/2000/svg">
<path d="M8.72366 3.84252C9.82999 3.65401 10.9645 3.7162 12.0436 4.02448C13.1227 4.33276 14.1189 4.87929 14.9587 5.62377L15.0049 5.66502L15.0474 5.62752C15.8489 4.92414 16.7912 4.39976 17.8114 4.08937C18.8316 3.77898 19.9062 3.68971 20.9637 3.82752L21.2712 3.87252C22.604 4.10265 23.8499 4.68896 24.8767 5.56935C25.9036 6.44974 26.6733 7.59145 27.1042 8.87356C27.5352 10.1557 27.6114 11.5305 27.3248 12.8524C27.0382 14.1742 26.3994 15.394 25.4762 16.3825L25.2512 16.6138L25.1912 16.665L15.8787 25.8888C15.6638 26.1015 15.379 26.2291 15.0773 26.2479C14.7755 26.2667 14.4771 26.1756 14.2374 25.9913L14.1199 25.8888L4.75366 16.6113C3.76144 15.6458 3.05579 14.4246 2.71486 13.0828C2.37394 11.7411 2.41104 10.3311 2.82206 9.00916C3.23309 7.68718 4.00199 6.50476 5.04362 5.59285C6.08524 4.68095 7.35895 4.07514 8.72366 3.84252Z" fill="#8F816A"/>
</svg>
