<svg width="35" height="35" viewBox="0 0 35 35" fill="none" xmlns="http://www.w3.org/2000/svg">
<path d="M28.4372 18.3344L17.4997 29.1669L6.56223 18.3344C5.8408 17.6323 5.27254 16.7886 4.89323 15.8561C4.51393 14.9237 4.3318 13.9228 4.3583 12.9166C4.38481 11.9103 4.61938 10.9204 5.04725 10.0092C5.47512 9.09806 6.08701 8.28536 6.84439 7.62229C7.60178 6.95923 8.48826 6.46016 9.44799 6.15652C10.4077 5.85289 11.4199 5.75126 12.4209 5.85803C13.4218 5.96481 14.3898 6.27768 15.2639 6.77694C16.138 7.27619 16.8993 7.95103 17.4997 8.75895C18.1028 7.9569 18.8649 7.28796 19.7384 6.794C20.6119 6.30003 21.5779 5.99169 22.5761 5.88825C23.5742 5.78481 24.583 5.88851 25.5392 6.19285C26.4954 6.4972 27.3785 6.99564 28.1332 7.65698C28.888 8.31832 29.4981 9.12832 29.9253 10.0363C30.3526 10.9443 30.5879 11.9307 30.6164 12.9337C30.645 13.9368 30.4661 14.935 30.0912 15.8658C29.7162 16.7966 29.1531 17.6399 28.4372 18.3431" fill="#FC444C"/>
<path d="M28.4372 18.3344L17.4997 29.1669L6.56223 18.3344C5.8408 17.6323 5.27254 16.7886 4.89323 15.8561C4.51393 14.9237 4.3318 13.9228 4.3583 12.9166C4.38481 11.9103 4.61938 10.9204 5.04725 10.0092C5.47512 9.09806 6.08701 8.28536 6.84439 7.62229C7.60178 6.95923 8.48826 6.46016 9.44799 6.15652C10.4077 5.85289 11.4199 5.75126 12.4209 5.85803C13.4218 5.96481 14.3898 6.27768 15.2639 6.77694C16.138 7.27619 16.8993 7.95103 17.4997 8.75895C18.1028 7.9569 18.8649 7.28796 19.7384 6.794C20.6119 6.30003 21.5779 5.99169 22.5761 5.88825C23.5742 5.78481 24.583 5.88851 25.5392 6.19285C26.4954 6.4972 27.3785 6.99564 28.1332 7.65698C28.888 8.31832 29.4981 9.12832 29.9253 10.0363C30.3526 10.9443 30.5879 11.9307 30.6164 12.9337C30.645 13.9368 30.4661 14.935 30.0912 15.8658C29.7162 16.7966 29.1531 17.6399 28.4372 18.3431" stroke="#FC444C" stroke-linecap="round" stroke-linejoin="round"/>
</svg>
