<svg width="35" height="35" viewBox="0 0 35 35" fill="none" xmlns="http://www.w3.org/2000/svg">
<path d="M28.4372 18.3342L17.4997 29.1667L6.56223 18.3342C5.8408 17.6322 5.27254 16.7884 4.89323 15.856C4.51393 14.9236 4.3318 13.9227 4.3583 12.9164C4.38481 11.9102 4.61938 10.9203 5.04725 10.0091C5.47512 9.09794 6.08701 8.28524 6.84439 7.62217C7.60178 6.9591 8.48826 6.46004 9.44799 6.1564C10.4077 5.85276 11.4199 5.75113 12.4209 5.85791C13.4218 5.96469 14.3898 6.27755 15.2639 6.77681C16.138 7.27607 16.8993 7.95091 17.4997 8.75882C18.1028 7.95677 18.8649 7.28783 19.7384 6.79387C20.6119 6.29991 21.5779 5.99156 22.5761 5.88812C23.5742 5.78469 24.583 5.88838 25.5392 6.19273C26.4954 6.49707 27.3785 6.99551 28.1332 7.65685C28.888 8.31819 29.4981 9.1282 29.9253 10.0362C30.3526 10.9441 30.5879 11.9305 30.6164 12.9336C30.645 13.9367 30.4661 14.9349 30.0912 15.8656C29.7162 16.7964 29.1531 17.6398 28.4372 18.343" fill="white"/>
<path d="M28.4372 18.3342L17.4997 29.1667L6.56223 18.3342C5.8408 17.6322 5.27254 16.7884 4.89323 15.856C4.51393 14.9236 4.3318 13.9227 4.3583 12.9164C4.38481 11.9102 4.61938 10.9203 5.04725 10.0091C5.47512 9.09794 6.08701 8.28524 6.84439 7.62217C7.60178 6.9591 8.48826 6.46004 9.44799 6.1564C10.4077 5.85276 11.4199 5.75113 12.4209 5.85791C13.4218 5.96469 14.3898 6.27755 15.2639 6.77681C16.138 7.27607 16.8993 7.95091 17.4997 8.75882C18.1028 7.95677 18.8649 7.28783 19.7384 6.79387C20.6119 6.29991 21.5779 5.99156 22.5761 5.88812C23.5742 5.78469 24.583 5.88838 25.5392 6.19273C26.4954 6.49707 27.3785 6.99551 28.1332 7.65685C28.888 8.31819 29.4981 9.1282 29.9253 10.0362C30.3526 10.9441 30.5879 11.9305 30.6164 12.9336C30.645 13.9367 30.4661 14.9349 30.0912 15.8656C29.7162 16.7964 29.1531 17.6398 28.4372 18.343" stroke="#FC444C" stroke-linecap="round" stroke-linejoin="round"/>
</svg>
