<svg width="30" height="30" viewBox="0 0 30 30" fill="none" xmlns="http://www.w3.org/2000/svg">
<rect width="30" height="30" rx="10" fill="#8F816A"/>
<path d="M15 5C15.9889 5 16.9556 5.29324 17.7779 5.84265C18.6001 6.39206 19.241 7.17295 19.6194 8.08658C19.9978 9.00021 20.0969 10.0055 19.9039 10.9755C19.711 11.9454 19.2348 12.8363 18.5355 13.5355C17.8363 14.2348 16.9454 14.711 15.9755 14.9039C15.0055 15.0969 14.0002 14.9978 13.0866 14.6194C12.173 14.241 11.3921 13.6001 10.8427 12.7779C10.2932 11.9556 10 10.9889 10 10L10.005 9.783C10.0609 8.49575 10.6116 7.27978 11.5422 6.38866C12.4728 5.49754 13.7115 5.00007 15 5Z" fill="#CDCDCC"/>
<path d="M17 17C18.3261 17 19.5979 17.5268 20.5355 18.4645C21.4732 19.4021 22 20.6739 22 22V23C22 23.5304 21.7893 24.0391 21.4142 24.4142C21.0391 24.7893 20.5304 25 20 25H10C9.46957 25 8.96086 24.7893 8.58579 24.4142C8.21071 24.0391 8 23.5304 8 23V22C8 20.6739 8.52678 19.4021 9.46447 18.4645C10.4021 17.5268 11.6739 17 13 17H17Z" fill="#CDCDCC"/>
<path d="M15 5C15.9889 5 16.9556 5.29324 17.7779 5.84265C18.6001 6.39206 19.241 7.17295 19.6194 8.08658C19.9978 9.00021 20.0969 10.0055 19.9039 10.9755C19.711 11.9454 19.2348 12.8363 18.5355 13.5355C17.8363 14.2348 16.9454 14.711 15.9755 14.9039C15.0055 15.0969 14.0002 14.9978 13.0866 14.6194C12.173 14.241 11.3921 13.6001 10.8427 12.7779C10.2932 11.9556 10 10.9889 10 10L10.005 9.783C10.0609 8.49575 10.6116 7.27978 11.5422 6.38866C12.4728 5.49754 13.7115 5.00007 15 5Z" stroke="#CDCDCC"/>
<path d="M17 17C18.3261 17 19.5979 17.5268 20.5355 18.4645C21.4732 19.4021 22 20.6739 22 22V23C22 23.5304 21.7893 24.0391 21.4142 24.4142C21.0391 24.7893 20.5304 25 20 25H10C9.46957 25 8.96086 24.7893 8.58579 24.4142C8.21071 24.0391 8 23.5304 8 23V22C8 20.6739 8.52678 19.4021 9.46447 18.4645C10.4021 17.5268 11.6739 17 13 17H17Z" stroke="#CDCDCC"/>
</svg>
