<svg width="26" height="24" viewBox="0 0 26 24" fill="none" xmlns="http://www.w3.org/2000/svg">
<path d="M6.72366 0.842515C7.82999 0.654013 8.96452 0.716195 10.0436 1.02448C11.1227 1.33276 12.1189 1.87929 12.9587 2.62377L13.0049 2.66502L13.0474 2.62752C13.8489 1.92414 14.7912 1.39976 15.8114 1.08937C16.8316 0.778977 17.9062 0.689708 18.9637 0.827515L19.2712 0.872515C20.604 1.10265 21.8499 1.68896 22.8767 2.56935C23.9036 3.44974 24.6733 4.59145 25.1042 5.87356C25.5352 7.15567 25.6114 8.53046 25.3248 9.85235C25.0382 11.1742 24.3994 12.394 23.4762 13.3825L23.2512 13.6138L23.1912 13.665L13.8787 22.8888C13.6638 23.1015 13.379 23.2291 13.0773 23.2479C12.7755 23.2667 12.4771 23.1756 12.2374 22.9913L12.1199 22.8888L2.75366 13.6113C1.76144 12.6458 1.05579 11.4246 0.714863 10.0828C0.373937 8.74108 0.41104 7.33114 0.822064 6.00916C1.23309 4.68718 2.00199 3.50476 3.04362 2.59285C4.08524 1.68095 5.35895 1.07514 6.72366 0.842515Z" fill="#8F816A"/>
</svg>
